<?xml version="1.0" encoding="UTF-8" standalone="no"?><!DOCTYPE svg PUBLIC "-//W3C//DTD SVG 1.1//EN" "http://www.w3.org/Graphics/SVG/1.1/DTD/svg11.dtd"><svg width="100%" height="100%" viewBox="0 0 600 600" version="1.1" xmlns="http://www.w3.org/2000/svg" xmlns:xlink="http://www.w3.org/1999/xlink" xml:space="preserve" xmlns:serif="http://www.serif.com/" style="fill-rule:evenodd;clip-rule:evenodd;stroke-linejoin:round;stroke-miterlimit:2;"><g><path d="M76.126,417.112l0,0.006l0,-0.006Zm522.156,-125.556c-0.083,-1.944 -0.25,-3.894 -0.506,-5.844c-0.172,-2.539 -0.511,-5.078 -0.85,-7.617c-0.167,-1.778 -0.422,-3.644 -0.761,-5.422c-0.083,-0.594 -0.167,-1.1 -0.25,-1.606c-0.339,-2.206 -0.767,-4.406 -1.272,-6.606c-0.933,-4.489 -2.033,-8.978 -3.389,-13.294c-0.928,-3.222 -1.944,-6.439 -2.961,-9.572c-0.678,-2.117 -1.528,-4.233 -2.372,-6.35c-0.083,-0.167 -0.172,-0.422 -0.256,-0.594c-0.761,-2.283 -1.694,-4.483 -2.706,-6.689c-1.95,-4.656 -4.239,-9.228 -6.606,-13.633c-1.189,-2.2 -2.456,-4.4 -3.728,-6.6c-1.183,-2.117 -2.539,-4.239 -3.894,-6.356c-1.356,-2.117 -2.711,-4.233 -4.233,-6.261c-1.439,-2.117 -2.878,-4.067 -4.406,-6.1l-0.083,0c-34.55,-45.472 -89.25,-74.856 -150.811,-74.856c-49.283,0 -93.906,18.122 -128.033,48.944c-7.961,7.2 -18.122,19.478 -33.533,37.006c-25.233,28.706 -99.072,115.922 -99.072,115.922l74.4,0c-8.139,9.267 -16.372,17.917 -24.667,25.567c-39.939,36.817 -81.089,56.883 -112.072,67.75c-3.528,1.239 -6.856,2.311 -10.094,3.317l0,-183.75c0,-6.556 -5.317,-11.872 -11.872,-11.872l-47.383,0c-6.556,0 -11.872,5.317 -11.872,11.872l0,233.461c0,20.144 17.211,35.989 37.289,34.328l1.211,-0.106c3.05,-0.283 49.594,-4.389 109.772,-33.756c30.056,-14.694 63.483,-35.767 96.1,-65.828c29.7,-27.367 58.628,-62.3 83.667,-106.111l-58.706,0l0.822,-0.444c0,0 56.478,-62.744 57.75,-64.017c2.117,-2.117 4.317,-4.15 6.606,-6.011c1.606,-1.272 3.133,-2.628 4.822,-3.811c1.272,-1.017 2.628,-1.95 3.983,-2.878c0.594,-0.422 1.183,-0.761 1.861,-1.189c1.272,-0.928 2.628,-1.689 3.983,-2.456c1.944,-1.183 3.806,-2.2 5.756,-3.217c14.817,-7.533 31.583,-11.856 49.283,-11.856c64.017,0 115.244,55.467 107.961,121.006c-5.506,49.028 -44.711,88.994 -93.739,95.261c-44.878,5.761 -85.106,-16.089 -106.522,-50.728c-0.017,-0.006 -0.022,-0.006 -0.033,-0.006c-14.106,17.25 -32.456,38.178 -55.683,61.15c11.6,14.561 25.317,27.35 40.644,37.933c0.761,0.511 1.522,1.017 2.289,1.439c3.044,2.206 6.267,4.15 9.483,6.011c1.694,1.106 3.472,2.033 5.25,2.967c4.656,2.622 9.567,4.994 14.478,7.111c1.778,0.85 3.556,1.611 5.422,2.289c2.117,0.928 4.317,1.778 6.6,2.539c2.628,0.933 5.25,1.861 7.878,2.622c1.267,0.428 2.539,0.85 3.811,1.106c2.878,0.844 5.672,1.606 8.633,2.283c0,0 0.089,0.083 0.172,0.083c3.217,0.767 6.433,1.444 9.739,1.95c4.317,0.844 8.806,1.522 13.294,1.95c2.456,0.25 4.822,0.506 7.283,0.589c1.267,0.172 2.456,0.256 3.722,0.256c2.967,0.167 6.011,0.256 9.061,0.256c5.506,0 11.094,-0.172 16.767,-0.678c89.167,-7.622 162.072,-78.494 171.811,-167.406c1.272,-11.35 1.439,-22.528 0.761,-33.45Z" style="fill:url(#_Linear1);"/><path d="M598.282,291.557c-0.083,-1.944 -0.25,-3.894 -0.506,-5.844c-0.172,-2.539 -0.511,-5.078 -0.85,-7.617c-0.167,-1.867 -0.422,-3.644 -0.761,-5.422c-0.083,-0.594 -0.167,-1.1 -0.25,-1.606c-0.428,-2.206 -0.85,-4.406 -1.272,-6.606c-0.933,-4.489 -2.033,-8.894 -3.389,-13.294c-0.928,-3.222 -1.944,-6.439 -2.961,-9.572c-0.761,-2.117 -1.528,-4.233 -2.372,-6.35c-0.083,-0.167 -0.172,-0.422 -0.256,-0.594c-0.844,-2.2 -1.778,-4.483 -2.711,-6.689c-2.028,-4.656 -4.233,-9.144 -6.6,-13.633c-1.189,-2.2 -2.456,-4.4 -3.728,-6.6c-1.272,-2.117 -2.539,-4.239 -3.894,-6.356c-1.356,-2.117 -2.794,-4.233 -4.233,-6.261c-1.439,-2.117 -2.878,-4.067 -4.406,-6.1l-0.083,0c-29.306,-14.706 -61.478,-21.45 -93.456,-20.5c-45.733,1.356 -91.067,18.578 -127.044,51.917c1.606,-1.272 3.133,-2.628 4.822,-3.811c1.272,-0.933 2.628,-1.95 3.983,-2.878c0.594,-0.422 1.183,-0.761 1.861,-1.189c1.356,-0.844 2.628,-1.689 3.978,-2.456c1.95,-1.183 3.811,-2.2 5.761,-3.217c14.817,-7.533 31.583,-11.856 49.283,-11.856c58.289,0 105.828,46.033 108.389,103.744c0.25,5.661 0.222,11.4 -0.428,17.261c-0.883,7.872 -2.722,15.472 -5.244,22.772c-13.183,38.183 -47.333,67.228 -88.494,72.489c-44.878,5.761 -85.1,-16.089 -106.522,-50.722c-0.339,0.339 -0.678,0.761 -1.017,1.189c-13.972,17.017 -32.006,37.511 -54.7,59.95c11.6,14.561 25.317,27.35 40.644,37.933c0.761,0.511 1.522,1.017 2.289,1.439c3.044,2.206 6.261,4.15 9.483,6.011c1.694,1.017 3.472,2.033 5.25,2.967c1.339,0.756 2.789,1.333 4.167,2.044c3.406,1.767 6.811,3.561 10.311,5.067c1.778,0.85 3.639,1.611 5.422,2.289c2.2,0.928 4.4,1.778 6.6,2.539c2.628,0.933 5.25,1.861 7.878,2.622c1.272,0.428 2.539,0.767 3.811,1.106c2.878,0.844 5.672,1.606 8.633,2.283c0,0 0.089,0.083 0.172,0.083c3.217,0.767 6.433,1.444 9.739,1.95c4.317,0.844 8.806,1.522 13.294,1.95c2.456,0.25 4.828,0.506 7.278,0.589c1.272,0.172 2.456,0.256 3.728,0.256c2.967,0.167 6.011,0.256 9.061,0.256c5.506,0 11.094,-0.172 16.767,-0.678c89.167,-7.622 162.072,-78.494 171.811,-167.406c1.272,-11.35 1.439,-22.528 0.761,-33.45Z" style="fill:url(#_Linear2);"/><clipPath id="_clip3"><path d="M598.282,291.557c-0.083,-1.944 -0.25,-3.894 -0.506,-5.844c-0.172,-2.539 -0.511,-5.078 -0.85,-7.617c-0.167,-1.867 -0.422,-3.644 -0.761,-5.422c-0.083,-0.594 -0.167,-1.1 -0.25,-1.606c-0.428,-2.206 -0.85,-4.406 -1.272,-6.606c-0.933,-4.489 -2.033,-8.894 -3.389,-13.294c-0.928,-3.222 -1.944,-6.439 -2.961,-9.572c-0.761,-2.117 -1.528,-4.233 -2.372,-6.35c-0.083,-0.167 -0.172,-0.422 -0.256,-0.594c-0.844,-2.2 -1.778,-4.483 -2.711,-6.689c-2.028,-4.656 -4.233,-9.144 -6.6,-13.633c-1.189,-2.2 -2.456,-4.4 -3.728,-6.6c-1.272,-2.117 -2.539,-4.239 -3.894,-6.356c-1.356,-2.117 -2.794,-4.233 -4.233,-6.261c-1.439,-2.117 -2.878,-4.067 -4.406,-6.1l-0.083,0c-29.306,-14.706 -61.478,-21.45 -93.456,-20.5c-45.733,1.356 -91.067,18.578 -127.044,51.917c1.606,-1.272 3.133,-2.628 4.822,-3.811c1.272,-0.933 2.628,-1.95 3.983,-2.878c0.594,-0.422 1.183,-0.761 1.861,-1.189c1.356,-0.844 2.628,-1.689 3.978,-2.456c1.95,-1.183 3.811,-2.2 5.761,-3.217c14.817,-7.533 31.583,-11.856 49.283,-11.856c58.289,0 105.828,46.033 108.389,103.744c0.25,5.661 0.222,11.4 -0.428,17.261c-0.883,7.872 -2.722,15.472 -5.244,22.772c-13.183,38.183 -47.333,67.228 -88.494,72.489c-44.878,5.761 -85.1,-16.089 -106.522,-50.722c-0.339,0.339 -0.678,0.761 -1.017,1.189c-13.972,17.017 -32.006,37.511 -54.7,59.95c11.6,14.561 25.317,27.35 40.644,37.933c0.761,0.511 1.522,1.017 2.289,1.439c3.044,2.206 6.261,4.15 9.483,6.011c1.694,1.017 3.472,2.033 5.25,2.967c1.339,0.756 2.789,1.333 4.167,2.044c3.406,1.767 6.811,3.561 10.311,5.067c1.778,0.85 3.639,1.611 5.422,2.289c2.2,0.928 4.4,1.778 6.6,2.539c2.628,0.933 5.25,1.861 7.878,2.622c1.272,0.428 2.539,0.767 3.811,1.106c2.878,0.844 5.672,1.606 8.633,2.283c0,0 0.089,0.083 0.172,0.083c3.217,0.767 6.433,1.444 9.739,1.95c4.317,0.844 8.806,1.522 13.294,1.95c2.456,0.25 4.828,0.506 7.278,0.589c1.272,0.172 2.456,0.256 3.728,0.256c2.967,0.167 6.011,0.256 9.061,0.256c5.506,0 11.094,-0.172 16.767,-0.678c89.167,-7.622 162.072,-78.494 171.811,-167.406c1.272,-11.35 1.439,-22.528 0.761,-33.45Z"/></clipPath><g clip-path="url(#_clip3)"><rect x="261.182" y="168.424" width="337.493" height="324.666" style="fill:url(#_Linear4);fill-rule:nonzero;"/></g><path d="M511.915,338.801c-13.183,38.183 -47.333,67.228 -88.494,72.489c-44.878,5.761 -85.1,-16.089 -106.522,-50.722c-0.339,0.339 -0.678,0.761 -1.017,1.189c-13.972,17.017 -32.006,37.511 -54.7,59.95c11.6,14.561 25.317,27.35 40.644,37.933c0.761,0.511 1.522,1.017 2.289,1.439c3.044,2.206 6.267,4.15 9.483,6.011c1.694,1.017 3.472,2.033 5.25,2.967c1.339,0.756 2.789,1.333 4.167,2.044c5.206,0.456 10.444,0.8 15.767,0.8c83.333,0 153.161,-57.011 173.133,-134.1Z" style="fill:#118979;fill-rule:nonzero;"/><path d="M598.282,291.557c-0.083,-1.944 -0.25,-3.894 -0.506,-5.844c-0.172,-2.539 -0.511,-5.078 -0.85,-7.617c-0.167,-1.867 -0.422,-3.644 -0.761,-5.422c-0.083,-0.594 -0.167,-1.1 -0.25,-1.606c-0.428,-2.206 -0.85,-4.406 -1.272,-6.606c-0.933,-4.489 -2.033,-8.894 -3.389,-13.294c-0.928,-3.222 -1.944,-6.439 -2.961,-9.572c-0.761,-2.117 -1.528,-4.233 -2.372,-6.35c-0.083,-0.167 -0.172,-0.422 -0.256,-0.594c-0.844,-2.2 -1.778,-4.483 -2.711,-6.689c-2.028,-4.656 -4.233,-9.144 -6.6,-13.633c-1.189,-2.2 -2.456,-4.4 -3.728,-6.6c-1.272,-2.117 -2.539,-4.239 -3.894,-6.356c-1.356,-2.117 -2.794,-4.233 -4.233,-6.261c-1.439,-2.117 -2.878,-4.067 -4.406,-6.1l-0.083,0c-29.306,-14.706 -61.478,-21.45 -93.456,-20.5c-45.733,1.356 -91.067,18.578 -127.044,51.917c1.606,-1.272 3.133,-2.628 4.822,-3.811c1.272,-0.933 2.628,-1.95 3.983,-2.878c0.594,-0.422 1.183,-0.761 1.861,-1.189c1.356,-0.844 2.628,-1.689 3.978,-2.456c1.95,-1.183 3.811,-2.2 5.761,-3.217c14.817,-7.533 31.583,-11.856 49.283,-11.856c58.289,0 105.828,46.033 108.389,103.744c0.25,5.661 0.222,11.4 -0.428,17.261c-0.883,7.872 -2.722,15.472 -5.244,22.772c-19.972,77.089 -89.8,134.1 -173.133,134.1c-5.322,0 -10.561,-0.344 -15.767,-0.8c3.406,1.767 6.811,3.561 10.311,5.067c1.778,0.85 3.639,1.611 5.422,2.289c2.2,0.928 4.4,1.778 6.6,2.539c2.628,0.933 5.25,1.861 7.878,2.622c1.272,0.428 2.539,0.767 3.811,1.106c2.878,0.844 5.672,1.606 8.633,2.283c0,0 0.089,0.083 0.172,0.083c3.217,0.767 6.433,1.444 9.739,1.95c4.317,0.844 8.806,1.522 13.294,1.95c2.456,0.25 4.828,0.506 7.278,0.589c1.272,0.172 2.456,0.256 3.728,0.256c2.967,0.167 6.011,0.256 9.061,0.256c5.506,0 11.094,-0.172 16.767,-0.678c89.167,-7.622 162.072,-78.494 171.811,-167.406c1.272,-11.35 1.439,-22.528 0.761,-33.45Z" style="fill:url(#_Linear5);"/><path d="M79.798,142.418c0,21.672 -17.567,39.239 -39.239,39.239c-21.667,0 -39.233,-17.567 -39.233,-39.239c0,-21.667 17.567,-39.239 39.233,-39.239c21.672,0 39.239,17.572 39.239,39.239Z" style="fill:url(#_Linear6);"/></g><defs><linearGradient id="_Linear1" x1="0" y1="0" x2="1" y2="0" gradientUnits="userSpaceOnUse" gradientTransform="matrix(-354.562211,358.886661,-358.886661,-354.562211,579.494883,191.202771)"><stop offset="0" style="stop-color:#4dc6e1;stop-opacity:1"/><stop offset="0.2" style="stop-color:#2cc0f0;stop-opacity:1"/><stop offset="0.7" style="stop-color:#4884c5;stop-opacity:1"/><stop offset="1" style="stop-color:#426db5;stop-opacity:1"/></linearGradient><linearGradient id="_Linear2" x1="0" y1="0" x2="1" y2="0" gradientUnits="userSpaceOnUse" gradientTransform="matrix(-332.942969,331.501476,-331.501476,-332.942969,759.340774,235.308674)"><stop offset="0" style="stop-color:#6ec064;stop-opacity:1"/><stop offset="0.27" style="stop-color:#3cb873;stop-opacity:1"/><stop offset="0.41" style="stop-color:#17a280;stop-opacity:1"/><stop offset="0.5" style="stop-color:#139289;stop-opacity:1"/><stop offset="0.77" style="stop-color:#3cb873;stop-opacity:1"/><stop offset="0.91" style="stop-color:#17a280;stop-opacity:1"/><stop offset="1" style="stop-color:#139289;stop-opacity:1"/></linearGradient><linearGradient id="_Linear4" x1="0" y1="0" x2="1" y2="0" gradientUnits="userSpaceOnUse" gradientTransform="matrix(-253.67037,250.788137,-250.788137,-253.67037,769.370404,226.603466)"><stop offset="0" style="stop-color:#12a27e;stop-opacity:1"/><stop offset="1" style="stop-color:#12a27e;stop-opacity:1"/></linearGradient><linearGradient id="_Linear5" x1="0" y1="0" x2="1" y2="0" gradientUnits="userSpaceOnUse" gradientTransform="matrix(-386.271094,194.57704,-194.57704,-386.271094,777.681515,311.837551)"><stop offset="0" style="stop-color:#6ec064;stop-opacity:1"/><stop offset="0.41" style="stop-color:#37b575;stop-opacity:1"/><stop offset="1" style="stop-color:#139189;stop-opacity:1"/></linearGradient><linearGradient id="_Linear6" x1="0" y1="0" x2="1" y2="0" gradientUnits="userSpaceOnUse" gradientTransform="matrix(-354.562211,358.886661,-358.886661,-354.562211,296.385219,-88.495782)"><stop offset="0" style="stop-color:#4dc6e1;stop-opacity:1"/><stop offset="0.2" style="stop-color:#2cc0f0;stop-opacity:1"/><stop offset="0.7" style="stop-color:#4884c5;stop-opacity:1"/><stop offset="1" style="stop-color:#426db5;stop-opacity:1"/></linearGradient></defs></svg>